<?xml version="1.0" encoding="iso-8859-1"?>
<!-- Generator: Adobe Illustrator 19.0.0, SVG Export Plug-In . SVG Version: 6.00 Build 0)  -->
<svg version="1.1" id="Capa_1" xmlns="http://www.w3.org/2000/svg" xmlns:xlink="http://www.w3.org/1999/xlink" x="0px" y="0px"
	 viewBox="0 0 512.003 512.003" style="enable-background:new 0 0 512.003 512.003;" xml:space="preserve">
<g>
	<g>
		<path d="M460.801,102.599v-0.198v-25.6c-0.015-14.132-11.468-25.585-25.6-25.6h-25.798c-90.876-68.267-215.929-68.267-306.804,0
			H76.801c-14.132,0.015-25.585,11.468-25.6,25.6v25.798c-33.389,44.156-51.375,98.044-51.2,153.402c0,141.385,114.615,256,256,256
			s256-114.615,256-256C512.176,200.643,494.19,146.755,460.801,102.599z M418.135,68.268h17.067
			c4.71,0.006,8.527,3.823,8.533,8.533v17.067h-25.6V68.268z M418.135,110.935h25.6v25.6h-25.6V110.935z M418.135,153.601h25.6v25.6
			h-25.6V153.601z M418.135,196.268h25.6v25.6h-25.6V196.268z M418.135,238.935h25.6v25.6h-25.6V238.935z M418.135,281.601h25.6
			v25.6h-25.6V281.601z M256.001,17.068c43.417-0.157,86.039,11.653,123.183,34.133H132.818
			C169.963,28.721,212.584,16.911,256.001,17.068z M68.268,76.801c0.006-4.71,3.823-8.527,8.533-8.533h324.267v25.6h-34.133
			c-4.713,0-8.533,3.82-8.533,8.533v34.133h-34.133c-4.713,0-8.533,3.82-8.533,8.533v34.133h-34.133
			c-4.713,0-8.533,3.82-8.533,8.533v34.133h-34.133c-4.713,0-8.533,3.82-8.533,8.533v34.133h-34.133
			c-4.713,0-8.533,3.821-8.533,8.533v34.133H68.268V76.801z M375.468,264.535v-25.6h25.6v25.6H375.468z M401.068,281.601v25.6h-25.6
			v-25.6H401.068z M375.468,221.868v-25.6h25.6v25.6H375.468z M375.468,179.201v-25.6h25.6v25.6H375.468z M375.468,136.535v-25.6
			h25.6v25.6H375.468z M332.801,264.535v-25.6h25.6v25.6H332.801z M358.401,281.601v25.6h-25.6v-25.6H358.401z M332.801,221.868
			v-25.6h25.6v25.6H332.801z M332.801,179.201v-25.6h25.6v25.6H332.801z M290.135,264.535v-25.6h25.6v25.6H290.135z
			 M315.735,281.601v25.6h-25.6v-25.6H315.735z M290.135,221.868v-25.6h25.6v25.6H290.135z M247.468,264.535v-25.6h25.6v25.6
			H247.468z M273.068,281.601v25.6h-25.6v-25.6H273.068z M230.401,281.601v25.6h-25.6v-25.6H230.401z M68.268,324.268h375.467v8.533
			c-0.006,4.71-3.823,8.527-8.533,8.533H290.135H76.801c-4.71-0.006-8.527-3.823-8.533-8.533V324.268z M290.135,392.535
			c20.266,0.026,37.727,14.282,41.808,34.133H180.06c4.081-19.851,21.542-34.107,41.808-34.133H290.135z M230.401,375.468v-17.067
			h51.2v17.067H230.401z M256.001,494.935C124.103,494.787,17.216,387.899,17.068,256.001
			c-0.157-43.417,11.653-86.039,34.133-123.183v199.983c0.015,14.132,11.468,25.585,25.6,25.6h136.533v17.748
			c-29.354,4.255-51.149,29.391-51.2,59.052c0,4.713,3.82,8.533,8.533,8.533h170.667c4.713,0,8.533-3.82,8.533-8.533
			c-0.051-29.661-21.846-54.798-51.2-59.052v-17.748h136.533c14.132-0.015,25.585-11.468,25.6-25.6V132.818
			c22.48,37.145,34.29,79.766,34.133,123.183C494.787,387.899,387.899,494.787,256.001,494.935z"/>
	</g>
</g>
<g>
</g>
<g>
</g>
<g>
</g>
<g>
</g>
<g>
</g>
<g>
</g>
<g>
</g>
<g>
</g>
<g>
</g>
<g>
</g>
<g>
</g>
<g>
</g>
<g>
</g>
<g>
</g>
<g>
</g>
</svg>
